<svg width="17" height="17" viewBox="0 0 17 17" fill="none" xmlns="http://www.w3.org/2000/svg">
<path fill-rule="evenodd" clip-rule="evenodd" d="M11.3692 10.612L14.868 14.1843C14.991 14.3099 15.06 14.4803 15.06 14.6579C15.0599 14.8355 14.9907 15.0059 14.8677 15.1314C14.7446 15.257 14.5777 15.3275 14.4038 15.3274C14.2298 15.3274 14.0629 15.2568 13.94 15.1311L10.4411 11.5588C9.39519 12.386 8.07992 12.7752 6.76288 12.6474C5.44584 12.5195 4.22596 11.8842 3.35142 10.8707C2.47687 9.85716 2.01334 8.54155 2.05513 7.19148C2.09693 5.84141 2.6409 4.55831 3.57638 3.60319C4.51187 2.64807 5.7686 2.09269 7.09092 2.05002C8.41324 2.00735 9.70181 2.4806 10.6945 3.3735C11.6872 4.2664 12.3094 5.51187 12.4347 6.85655C12.5599 8.20123 12.1786 9.54411 11.3685 10.612H11.3692ZM7.25575 11.343C8.29064 11.343 9.28314 10.9233 10.0149 10.1762C10.7467 9.42904 11.1578 8.41571 11.1578 7.35911C11.1578 6.3025 10.7467 5.28917 10.0149 4.54204C9.28314 3.79491 8.29064 3.37517 7.25575 3.37517C6.22087 3.37517 5.22836 3.79491 4.49659 4.54204C3.76481 5.28917 3.3537 6.3025 3.3537 7.35911C3.3537 8.41571 3.76481 9.42904 4.49659 10.1762C5.22836 10.9233 6.22087 11.343 7.25575 11.343V11.343Z" fill="white"/>
</svg>
