<svg  width="21" height="20" viewBox="0 0 21 20" fill="#9A9A9A" xmlns="http://www.w3.org/2000/svg">
<path d="M19.7099 7.17193H5.18681V4.09825C5.18681 2.96815 6.11733 2.04912 7.26154 2.04912C8.40575 2.04912 9.33626 2.96815 9.33626 4.09825H11.411C11.411 1.83806 9.54996 0 7.26154 0C4.97312 0 3.11209 1.83806 3.11209 4.09825V7.17193H1.03736C0.762237 7.17193 0.49838 7.27988 0.303836 7.47202C0.109293 7.66416 0 7.92476 0 8.19649V10.2456C0 12.9156 1.73654 15.1871 4.14945 16.0344V19.4667H6.22418V16.393H14.5231V19.4667H16.5978V16.0344C19.0107 15.1871 20.7473 12.9156 20.7473 10.2456V8.19649C20.7473 7.92476 20.638 7.66416 20.4434 7.47202C20.2489 7.27988 19.985 7.17193 19.7099 7.17193ZM18.6725 10.2456C18.6725 12.5058 16.8115 14.3439 14.5231 14.3439H6.22418C3.93575 14.3439 2.07473 12.5058 2.07473 10.2456V9.22105H18.6725V10.2456Z" fill="#9A9A9A"/>
</svg>
