<svg width="27" height="20" viewBox="0 0 27 20" fill="none" xmlns="http://www.w3.org/2000/svg">
<path d="M3.48975 2.76737C3.48975 2.29863 3.68647 1.8491 4.03665 1.51765C4.38683 1.1862 4.86177 1 5.357 1H21.5399C22.0351 1 22.51 1.1862 22.8602 1.51765C23.2104 1.8491 23.4071 2.29863 23.4071 2.76737V9.24772H3.48975V2.76737Z" stroke="#9A9A9A" stroke-width="2" stroke-linecap="round" stroke-linejoin="round"/>
<path d="M2.24512 16.317V18.6735" stroke="#9A9A9A" stroke-width="2" stroke-linecap="round" stroke-linejoin="round"/>
<path d="M24.6519 16.317V18.6735" stroke="#9A9A9A" stroke-width="2" stroke-linecap="round" stroke-linejoin="round"/>
<path d="M16.5607 6.30212H10.3365C9.84126 6.30212 9.36632 6.48833 9.01614 6.81977C8.66597 7.15122 8.46924 7.60076 8.46924 8.06949V9.24774H18.4279V8.06949C18.4279 7.60076 18.2312 7.15122 17.881 6.81977C17.5308 6.48833 17.0559 6.30212 16.5607 6.30212Z" stroke="#9A9A9A" stroke-width="2" stroke-linecap="round" stroke-linejoin="round"/>
<path d="M1 11.015C1 10.5463 1.19673 10.0968 1.54691 9.76533C1.89708 9.43388 2.37203 9.24768 2.86725 9.24768H24.0295C24.5247 9.24768 24.9996 9.43388 25.3498 9.76533C25.7 10.0968 25.8967 10.5463 25.8967 11.015V16.3172H1V11.015Z" stroke="#9A9A9A" stroke-width="2" stroke-linecap="round" stroke-linejoin="round"/>
</svg>
